<?xml version="1.0"?>
<svg xmlns="http://www.w3.org/2000/svg" xmlns:xlink="http://www.w3.org/1999/xlink" xmlns:svgjs="http://svgjs.com/svgjs" version="1.1" width="512" height="512" x="0" y="0" viewBox="0 0 74 74" style="enable-background:new 0 0 512 512" xml:space="preserve" class=""><g><path xmlns="http://www.w3.org/2000/svg" d="m55.93 10.72a1 1 0 0 1 -.622-.217c-.8-.636-1.573-1.193-2.361-1.7a1 1 0 1 1 1.087-1.678c.842.545 1.666 1.139 2.518 1.817a1 1 0 0 1 -.622 1.782z" fill="#fbfbfb" data-original="#000000" style="" class=""/><path xmlns="http://www.w3.org/2000/svg" d="m36.81 65.05a31.525 31.525 0 0 1 -2.426-62.957 1 1 0 0 1 .152 1.994 29.526 29.526 0 1 0 31.804 29.433 29.237 29.237 0 0 0 -6.277-18.2 1 1 0 1 1 1.574-1.234 31.216 31.216 0 0 1 6.7 19.437 31.565 31.565 0 0 1 -31.527 31.527z" fill="#fbfbfb" data-original="#000000" style="" class=""/><path xmlns="http://www.w3.org/2000/svg" d="m46.86 5.69a1 1 0 0 1 -.33-.056 31.069 31.069 0 0 0 -3.082-.891 1 1 0 0 1 .464-1.943 33.514 33.514 0 0 1 3.278.949 1 1 0 0 1 -.33 1.944z" fill="#fbfbfb" data-original="#000000" style="" class=""/><path xmlns="http://www.w3.org/2000/svg" d="m67.712 72a1 1 0 0 1 -.782-.377 17.35 17.35 0 0 0 -13.642-6.576h-16.476a1 1 0 0 1 0-2h16.476a19.337 19.337 0 0 1 15.206 7.33 1 1 0 0 1 -.782 1.623z" fill="#fbfbfb" data-original="#000000" style="" class=""/><path xmlns="http://www.w3.org/2000/svg" d="m53.271 35.14a7 7 0 1 1 6.667-9.17 7.011 7.011 0 0 1 -6.667 9.17zm.013-12.011a5.011 5.011 0 1 0 2.266.548 5 5 0 0 0 -2.266-.548z" fill="#fbfbfb" data-original="#000000" style="" class=""/><path xmlns="http://www.w3.org/2000/svg" d="m36.812 23.172a7 7 0 1 1 7-7 7.01 7.01 0 0 1 -7 7zm0-12a5 5 0 1 0 5 5 5.008 5.008 0 0 0 -5-5.004z" fill="#fbfbfb" data-original="#000000" style="" class=""/><path xmlns="http://www.w3.org/2000/svg" d="m20.352 35.14a7.012 7.012 0 0 1 -6.667-9.17 7 7 0 1 1 6.667 9.17zm-4.765-8.552a5 5 0 1 0 6.3-3.211 5.009 5.009 0 0 0 -6.3 3.211z" fill="#fbfbfb" data-original="#000000" style="" class=""/><path xmlns="http://www.w3.org/2000/svg" d="m26.625 54.492a7 7 0 1 1 5.675-2.884 6.963 6.963 0 0 1 -5.675 2.884zm.02-12a5.065 5.065 0 0 0 -.793.063 5 5 0 0 0 -2.158 8.987 5 5 0 1 0 2.951-9.05z" fill="#fbfbfb" data-original="#000000" style="" class=""/><path xmlns="http://www.w3.org/2000/svg" d="m47 54.5a7.066 7.066 0 0 1 -1.11-.088 7 7 0 1 1 5.211-1.251 6.947 6.947 0 0 1 -4.101 1.339zm-.025-12.007a5 5 0 1 0 2.95 9.05 5 5 0 0 0 -2.158-8.987 5.043 5.043 0 0 0 -.788-.067z" fill="#fbfbfb" data-original="#000000" style="" class=""/><path xmlns="http://www.w3.org/2000/svg" d="m36.812 39.046a5.561 5.561 0 1 1 5.561-5.561 5.568 5.568 0 0 1 -5.561 5.561zm0-9.122a3.561 3.561 0 1 0 3.561 3.561 3.565 3.565 0 0 0 -3.561-3.561z" fill="#fbfbfb" data-original="#000000" style="" class=""/></g></svg>
